<mxfile host="app.diagrams.net" modified="2024-01-16T15:29:42.731Z" agent="Mozilla/5.0 (X11; Linux x86_64; rv:121.0) Gecko/20100101 Firefox/121.0" etag="ZbHELMj5RJfFNQ56Okgb" version="22.1.18" type="device">
  <diagram name="Page-1" id="Pn-wypl-T1iy8DhiTgwv">
    <mxGraphModel dx="790" dy="430" grid="1" gridSize="10" guides="1" tooltips="1" connect="1" arrows="1" fold="1" page="1" pageScale="1" pageWidth="827" pageHeight="1169" math="0" shadow="0">
      <root>
        <mxCell id="0" />
        <mxCell id="1" parent="0" />
        <mxCell id="0i7Q_ldmBBtZn8EXGFDv-1" value="pixel timer" style="rounded=0;whiteSpace=wrap;html=1;fillColor=default;" vertex="1" parent="1">
          <mxGeometry x="70" y="20" width="70" height="100" as="geometry" />
        </mxCell>
        <mxCell id="0i7Q_ldmBBtZn8EXGFDv-2" value="hpixel FSM" style="rounded=0;whiteSpace=wrap;html=1;" vertex="1" parent="1">
          <mxGeometry x="200" y="40" width="120" height="60" as="geometry" />
        </mxCell>
        <mxCell id="0i7Q_ldmBBtZn8EXGFDv-3" value="pixel_clk" style="endArrow=classic;html=1;rounded=0;labelBackgroundColor=none;labelPosition=center;verticalLabelPosition=top;align=center;verticalAlign=bottom;" edge="1" parent="1">
          <mxGeometry width="50" height="50" relative="1" as="geometry">
            <mxPoint x="140" y="70" as="sourcePoint" />
            <mxPoint x="200" y="69.71000000000001" as="targetPoint" />
          </mxGeometry>
        </mxCell>
        <mxCell id="0i7Q_ldmBBtZn8EXGFDv-4" value="" style="endArrow=classic;html=1;rounded=0;labelBackgroundColor=none;labelPosition=center;verticalLabelPosition=top;align=center;verticalAlign=bottom;" edge="1" parent="1">
          <mxGeometry width="50" height="50" relative="1" as="geometry">
            <mxPoint x="320" y="49.43000000000001" as="sourcePoint" />
            <mxPoint x="340" y="50" as="targetPoint" />
          </mxGeometry>
        </mxCell>
        <mxCell id="0i7Q_ldmBBtZn8EXGFDv-5" value="" style="endArrow=classic;html=1;rounded=0;labelBackgroundColor=none;labelPosition=center;verticalLabelPosition=middle;align=center;verticalAlign=middle;" edge="1" parent="1">
          <mxGeometry width="50" height="50" relative="1" as="geometry">
            <mxPoint x="320" y="90" as="sourcePoint" />
            <mxPoint x="340" y="90" as="targetPoint" />
          </mxGeometry>
        </mxCell>
        <mxCell id="0i7Q_ldmBBtZn8EXGFDv-6" value="" style="endArrow=classic;html=1;rounded=0;labelBackgroundColor=none;labelPosition=center;verticalLabelPosition=top;align=center;verticalAlign=bottom;" edge="1" parent="1">
          <mxGeometry width="50" height="50" relative="1" as="geometry">
            <mxPoint x="320" y="69.71000000000001" as="sourcePoint" />
            <mxPoint x="340" y="70" as="targetPoint" />
          </mxGeometry>
        </mxCell>
        <mxCell id="0i7Q_ldmBBtZn8EXGFDv-7" value="clk" style="endArrow=classic;html=1;rounded=0;labelPosition=center;verticalLabelPosition=top;align=center;verticalAlign=bottom;labelBackgroundColor=none;" edge="1" parent="1">
          <mxGeometry width="50" height="50" relative="1" as="geometry">
            <mxPoint x="11" y="140" as="sourcePoint" />
            <mxPoint x="61" y="140" as="targetPoint" />
          </mxGeometry>
        </mxCell>
        <mxCell id="0i7Q_ldmBBtZn8EXGFDv-8" value="reset" style="endArrow=classic;html=1;rounded=0;labelPosition=center;verticalLabelPosition=top;align=center;verticalAlign=bottom;labelBackgroundColor=none;" edge="1" parent="1">
          <mxGeometry width="50" height="50" relative="1" as="geometry">
            <mxPoint x="10" y="160" as="sourcePoint" />
            <mxPoint x="60" y="160" as="targetPoint" />
          </mxGeometry>
        </mxCell>
        <mxCell id="0i7Q_ldmBBtZn8EXGFDv-9" value="" style="endArrow=none;html=1;rounded=0;" edge="1" parent="1">
          <mxGeometry width="50" height="50" relative="1" as="geometry">
            <mxPoint x="60" y="140" as="sourcePoint" />
            <mxPoint x="250" y="140" as="targetPoint" />
          </mxGeometry>
        </mxCell>
        <mxCell id="0i7Q_ldmBBtZn8EXGFDv-10" value="" style="endArrow=none;html=1;rounded=0;" edge="1" parent="1">
          <mxGeometry width="50" height="50" relative="1" as="geometry">
            <mxPoint x="60" y="160" as="sourcePoint" />
            <mxPoint x="270" y="160" as="targetPoint" />
          </mxGeometry>
        </mxCell>
        <mxCell id="0i7Q_ldmBBtZn8EXGFDv-11" value="" style="endArrow=classic;html=1;rounded=0;" edge="1" parent="1">
          <mxGeometry width="50" height="50" relative="1" as="geometry">
            <mxPoint x="250" y="140" as="sourcePoint" />
            <mxPoint x="250" y="100" as="targetPoint" />
          </mxGeometry>
        </mxCell>
        <mxCell id="0i7Q_ldmBBtZn8EXGFDv-12" value="" style="endArrow=classic;html=1;rounded=0;" edge="1" parent="1">
          <mxGeometry width="50" height="50" relative="1" as="geometry">
            <mxPoint x="270" y="160" as="sourcePoint" />
            <mxPoint x="270" y="100" as="targetPoint" />
          </mxGeometry>
        </mxCell>
        <mxCell id="0i7Q_ldmBBtZn8EXGFDv-13" value="" style="endArrow=classic;html=1;rounded=0;" edge="1" parent="1">
          <mxGeometry width="50" height="50" relative="1" as="geometry">
            <mxPoint x="90" y="140" as="sourcePoint" />
            <mxPoint x="90" y="120" as="targetPoint" />
          </mxGeometry>
        </mxCell>
        <mxCell id="0i7Q_ldmBBtZn8EXGFDv-14" value="" style="endArrow=classic;html=1;rounded=0;" edge="1" parent="1">
          <mxGeometry width="50" height="50" relative="1" as="geometry">
            <mxPoint x="120" y="130" as="sourcePoint" />
            <mxPoint x="120" y="120" as="targetPoint" />
          </mxGeometry>
        </mxCell>
        <mxCell id="0i7Q_ldmBBtZn8EXGFDv-15" value="" style="endArrow=none;dashed=1;html=1;dashPattern=1 3;strokeWidth=2;rounded=0;" edge="1" parent="1">
          <mxGeometry width="50" height="50" relative="1" as="geometry">
            <mxPoint x="120" y="150" as="sourcePoint" />
            <mxPoint x="120" y="130" as="targetPoint" />
          </mxGeometry>
        </mxCell>
        <mxCell id="0i7Q_ldmBBtZn8EXGFDv-16" value="" style="endArrow=none;html=1;rounded=0;" edge="1" parent="1">
          <mxGeometry width="50" height="50" relative="1" as="geometry">
            <mxPoint x="120" y="160" as="sourcePoint" />
            <mxPoint x="120" y="150" as="targetPoint" />
          </mxGeometry>
        </mxCell>
        <mxCell id="0i7Q_ldmBBtZn8EXGFDv-18" value="hsync" style="endArrow=classic;html=1;rounded=0;labelBackgroundColor=none;labelPosition=center;verticalLabelPosition=top;align=center;verticalAlign=bottom;" edge="1" parent="1">
          <mxGeometry width="50" height="50" relative="1" as="geometry">
            <mxPoint x="340" y="49.480000000000004" as="sourcePoint" />
            <mxPoint x="420" y="49.480000000000004" as="targetPoint" />
          </mxGeometry>
        </mxCell>
        <mxCell id="0i7Q_ldmBBtZn8EXGFDv-19" value="&lt;div&gt;hpixel&lt;/div&gt;[6:0]" style="endArrow=classic;html=1;rounded=0;labelBackgroundColor=none;labelPosition=center;verticalLabelPosition=middle;align=center;verticalAlign=middle;" edge="1" parent="1">
          <mxGeometry width="50" height="50" relative="1" as="geometry">
            <mxPoint x="340" y="90.05" as="sourcePoint" />
            <mxPoint x="420" y="90.05" as="targetPoint" />
          </mxGeometry>
        </mxCell>
        <mxCell id="0i7Q_ldmBBtZn8EXGFDv-20" value="display_time" style="endArrow=classic;html=1;rounded=0;labelBackgroundColor=none;labelPosition=center;verticalLabelPosition=top;align=center;verticalAlign=bottom;" edge="1" parent="1">
          <mxGeometry width="50" height="50" relative="1" as="geometry">
            <mxPoint x="340" y="69.76" as="sourcePoint" />
            <mxPoint x="420" y="69.76" as="targetPoint" />
          </mxGeometry>
        </mxCell>
        <mxCell id="0i7Q_ldmBBtZn8EXGFDv-22" value="hpixel_module" style="text;html=1;strokeColor=none;fillColor=none;align=center;verticalAlign=middle;whiteSpace=wrap;rounded=0;" vertex="1" parent="1">
          <mxGeometry x="260" y="170" width="70" height="10" as="geometry" />
        </mxCell>
        <mxCell id="0i7Q_ldmBBtZn8EXGFDv-24" value="" style="rounded=0;whiteSpace=wrap;html=1;fillColor=none;" vertex="1" parent="1">
          <mxGeometry x="60" y="10" width="280" height="180" as="geometry" />
        </mxCell>
      </root>
    </mxGraphModel>
  </diagram>
</mxfile>
